<svg xmlns="http://www.w3.org/2000/svg" viewBox="0 0 600 700"><rect width="600" height="700" fill="#edf8f5"/><circle cx="300" cy="245" r="112" fill="#a96845"/><path d="M186 231c6-98 201-135 228 0-34-22-69-36-115-36-43 0-78 13-113 36z" fill="#1b1d1f"/><path d="M191 226q5-83 109-108-39 46-38 107z" fill="#1b1d1f"/><ellipse cx="260" cy="258" rx="9" ry="12" fill="#222"/><ellipse cx="340" cy="258" rx="9" ry="12" fill="#222"/><path d="M270 314q30 18 60 0" fill="none" stroke="#713d30" stroke-width="7" stroke-linecap="round"/><path d="M168 700c12-166 59-236 132-257 72 21 120 91 132 257" fill="#ffffff"/><path d="M175 700c11-119 50-189 125-220 75 31 114 101 125 220" fill="#148d7a"/><path d="M245 475h110v70H245z" fill="#fff"/><circle cx="300" cy="510" r="18" fill="#148d7a"/><text x="300" y="664" text-anchor="middle" font-family="Arial" font-size="18" fill="#315b55">SmartCare caregiver</text></svg>
